<svg style="" data-layer-last-child="true" preserveAspectRatio="none" xmlns="http://www.w3.org/2000/svg" xmlns:xlink="http://www.w3.org/1999/xlink" version="1.1" id="Layer_1" x="0px" y="0px" viewBox="0 0 484 60" xml:space="preserve"><g><path d="M6.1,43.3c8.3-10.1,17.2-20.2,27.9-28c5.8-4.3,12.5-8.2,19.8-9.2c0,0,0.9-0.1,1.5-0.1c0.7,0,1.3-0.1,2,0   C57.8,5.9,58.4,6,59,6c0.8,0.1-0.1,0,0.4,0c0.3,0,0.6,0.1,0.9,0.2c4.5,0.9,8.2,3.2,11.5,6.3c7.1,6.7,12.4,15.2,22.2,18.5   c4.7,1.6,10.1,1.8,14.9,0.4c4.2-1.3,7.6-3.8,11.1-6.4c3.7-2.8,7.6-5.7,12-7.4c5.6-2.2,11.9-3,17.9-2.3c10.1,1.1,18.6,7.2,28.3,9.8   c10.6,2.8,22.3,0.9,31.1-5.6c4.4-3.2,8.7-5.7,14.1-7c6.9-1.7,14.3-1.9,21.4-0.8c9.3,1.5,18.2,4.8,26.1,10   c5.5,3.5,10.5,7.8,14.9,12.6c3.3,3.6,6.9,7.8,8.4,12.5c0.5,1.4,0.7,2.9,0.4,3.7c-0.1,0.3-0.3,0.6-0.9,1c-0.1,0.1-1.1,0.6-1.5,0.8   c-3.8,1.5-8.5,1.3-12.4,0.6c-3.7-0.7-8.2-2-10.5-5.1c-1.8-2.5-1.3-6.2-0.4-9.2c2.7-9.4,10.1-18.2,18.3-23.4   c7.5-4.8,16.2-6.4,23.7-0.9c6.9,5.1,11.6,12.8,17.5,18.9c6.7,7,15.2,12,25.1,12.3c9.6,0.3,17.7-4.7,25.3-10   c10.6-7.4,21.1-14.3,33.4-18.6c14.4-5,29.7-6.6,44.8-5.7c6.1,0.4,12.2,1.2,18.2,2.3c3.8,0.7,5.4-5,1.6-5.7   C447,2,416,4.9,389.7,20.8c-5.1,3.1-9.8,6.5-14.7,9.9c-3.8,2.7-7.8,5.5-12.2,7.1c-9,3.4-18.8,1.1-26.1-5   c-7.2-6-12.1-14.1-18.9-20.5c-7.1-6.6-16-9.5-25.5-6.4c-10.6,3.5-19.5,12.1-25.1,21.5c-4.3,7.1-8.5,18.1-1.7,25.1   c6.3,6.5,18.6,8.1,27.1,5.8c3.8-1.1,7.4-3.4,8-7.5c0.7-4.5-1.8-9-4.2-12.7c-12.7-19.3-36.1-32.5-59.4-33c-7.5-0.1-15.3,1-22.2,4   c-4.5,2-7.9,5.3-12.1,7.7c-5.1,2.9-11.5,4-17.3,3.6c-5.1-0.4-9.9-2.2-14.5-4.2c-4.9-2.1-9.7-4.4-14.9-5.7   c-6.2-1.5-12.6-1.6-18.9-0.4c-5.7,1.1-11,3.4-15.7,6.7c-3.7,2.5-7.1,5.6-11,7.8c-4.1,2.2-8.8,2.6-13.3,1.3   c-4.9-1.3-8.8-4.5-12.2-8.1C78,10.6,71.9,2.3,61.5,0.4c-17.2-3-33,10.4-44.2,21.5C11.8,27.3,6.7,33.1,1.9,39.1   C-0.5,42,3.7,46.3,6.1,43.3L6.1,43.3z"/></g></svg>