<svg style="" data-layer-last-child="true" preserveAspectRatio="none" xmlns="http://www.w3.org/2000/svg" xmlns:xlink="http://www.w3.org/1999/xlink" version="1.1" id="Capa_1" x="0px" y="0px" viewBox="0 0 1000 528" xml:space="preserve"><style type="text/css">
	.st0{clip-path:url(#SVGID_2_);}
</style><g><defs><rect id="SVGID_1_" x="0.4" y="73" width="1000" height="454.7"/></defs><clipPath id="SVGID_2_"><use xlink:href="#SVGID_1_" style="overflow:visible;"/></clipPath><path class="st0" d="M1000.4,73c-5.7,7.3-12.1,13.3-18.8,9.3c-16.5,19.2-20.3,27.8-38.7,15.6c-15.8,7-24.6-0.9-35.3,15.4   c-12.2-23.5-20.1,15.6-35.5,18.7c-10.1-14.7-19.9-15.1-31.3,17.8c-9.1,14.7-25.2-7.5-32.1,15.4c-14.5-19.2-23,18.3-37.7,11.1   c-10.9,4.3-20.7,21.7-34.3,3.6c-10.4-14.9-23.7,24.4-33.7-2.2c-8.3-0.7-26.5-19.7-33.4-7c-10.3,13.5-18.3-9.7-30.8-11.1   c-0.9-0.2-2-0.2-3,0c-2.7-1.4-5.6-2-8.5-2.5c-2.2,0-4.4-0.2-6.7-0.2c-6-0.7-12.1-1.8-17.2-8.1c-0.9-0.9-1.6-1.6-2.2-2.9   c-8.2-11.5-14-0.9-25.7-11.3c-11.1-4.1-12.3-0.5-27.9-11.1c-7.7-10.6-18.1,0.2-25.7-6.5c-10.1,3.6-12.4,8.3-23.3,1.6   c-5.6-13.8-18,3.6-21.7,6.3c-2.4,15.1-12.7-12.2-22.5,4.3c-12.5-5.4-22.9-3.2-37.2-1.6c-14.3,8.8-24.3-27.6-36.4-5.4   c-13.2,2-24.7,3.4-35.6-5.6c-12.6-2-18.8,3.2-34.9-2.2c-12.1,8.8-20.4-3.4-34.3,5.4c-14.3,3.6-25.9,18.3-34.4,10.8   c-13.2,15.6-25.8,5.6-34.7,11.5c-14.1-2.7-22.4,23-35.4,11.5c-4.4,2-16.5,27.8-28,5.9c-12.1,0.2-11.5,28.4-25.3,4.5   c-9.6,39.1-21-29.1-25.1,11.3c-8.3,16.5-15.5,19.2-32.7,12C45.5,175.6,38.2,144,27,183.7c-11.2,0.9-10.2,28.4-26.6,5.1v338.9h250   h750V73z"/></g></svg>