<svg data-layer-last-child="true" enable-background="new 0 0 100 100" preserveAspectRatio="none" version="1.1" viewBox="0 0 100 100" x="0px" xml:space="preserve" xmlns="http://www.w3.org/2000/svg" xmlns:xlink="http://www.w3.org/1999/xlink" y="0px"><path d="M49.8,13c-20.3,0-36.9,16.5-36.9,36.9c0,20.3,16.5,36.9,36.9,36.9c20.3,0,36.9-16.5,36.9-36.9C86.7,29.5,70.1,13,49.8,13z   M49.8,85.5c-19.7,0-35.6-16-35.6-35.6c0-19.7,16-35.6,35.6-35.6c19.7,0,35.6,16,35.6,35.6C85.4,69.5,69.5,85.5,49.8,85.5z   M66.5,50.1c0,0.1-0.1,0.1-0.1,0.2L52.7,64c-0.1,0.1-0.3,0.2-0.4,0.2c-0.2,0-0.3-0.1-0.4-0.2c-0.2-0.2-0.2-0.6,0-0.9l12.6-12.6H32.2  c-0.3,0-0.6-0.3-0.6-0.6s0.3-0.6,0.6-0.6h32.2L51.9,36.7c-0.2-0.2-0.2-0.6,0-0.9c0.2-0.2,0.6-0.2,0.9,0l13.6,13.6  c0.1,0.1,0.1,0.1,0.1,0.2C66.5,49.8,66.5,49.9,66.5,50.1z"/></svg>