<svg data-layer-last-child="true" enable-background="new 0 0 100 100" preserveAspectRatio="none" version="1.1" viewBox="0 0 100 100" x="0px" xml:space="preserve" xmlns="http://www.w3.org/2000/svg" xmlns:xlink="http://www.w3.org/1999/xlink" y="0px"><g><path d="M35.163,35.509c-0.271,0-0.491,0.22-0.491,0.492v1.862c0,0.271,0.219,0.49,0.491,0.49s0.491-0.22,0.491-0.49v-1.862   C35.654,35.729,35.435,35.509,35.163,35.509z"/><path d="M35.654,32.273c0-0.271-0.219-0.491-0.491-0.491s-0.491,0.22-0.491,0.491v1.863c0,0.271,0.219,0.491,0.491,0.491   s0.491-0.22,0.491-0.491V32.273z"/><path d="M35.654,28.547c0-0.271-0.219-0.49-0.491-0.49s-0.491,0.219-0.491,0.49v1.863c0,0.271,0.219,0.491,0.491,0.491   s0.491-0.22,0.491-0.491V28.547z"/><path d="M35.163,53.26c0.271,0,0.491-0.221,0.491-0.491v-1.863c0-0.271-0.219-0.491-0.491-0.491s-0.491,0.22-0.491,0.491v1.863   C34.672,53.039,34.892,53.26,35.163,53.26z"/><path d="M35.163,49.534c0.271,0,0.491-0.221,0.491-0.492v-1.863c0-0.271-0.219-0.491-0.491-0.491s-0.491,0.22-0.491,0.491v1.863   C34.672,49.313,34.892,49.534,35.163,49.534z"/><path d="M35.163,56.986c0.271,0,0.491-0.221,0.491-0.491v-1.864c0-0.271-0.219-0.491-0.491-0.491s-0.491,0.221-0.491,0.491v1.864   C34.672,56.766,34.892,56.986,35.163,56.986z"/><path d="M36.145,58.85h-0.491v-0.491c0-0.271-0.219-0.491-0.491-0.491s-0.491,0.22-0.491,0.491v0.711l-1.434,0.902   c-0.229,0.145-0.298,0.447-0.154,0.678c0.094,0.147,0.253,0.229,0.416,0.229c0.089,0,0.18-0.024,0.261-0.076l1.542-0.972h0.84   c0.272,0,0.493-0.22,0.493-0.49C36.637,59.069,36.417,58.85,36.145,58.85z"/><path d="M59.888,58.85h-1.976c-0.271,0-0.492,0.22-0.492,0.491c0,0.271,0.221,0.49,0.492,0.49h1.976c0.271,0,0.492-0.22,0.492-0.49   C60.38,59.069,60.159,58.85,59.888,58.85z"/><path d="M63.846,58.85h-1.978c-0.271,0-0.49,0.22-0.49,0.491c0,0.271,0.22,0.49,0.49,0.49h1.978c0.272,0,0.491-0.22,0.491-0.49   C64.337,59.069,64.118,58.85,63.846,58.85z"/><path d="M55.933,58.85h-1.979c-0.271,0-0.49,0.22-0.49,0.491c0,0.271,0.219,0.49,0.49,0.49h1.979c0.27,0,0.489-0.22,0.489-0.49   C56.422,59.069,56.202,58.85,55.933,58.85z"/><path d="M48.017,58.85h-1.979c-0.271,0-0.491,0.22-0.491,0.491c0,0.271,0.22,0.49,0.491,0.49h1.979c0.271,0,0.491-0.22,0.491-0.49   C48.508,59.069,48.288,58.85,48.017,58.85z"/><path d="M51.975,58.85h-1.979c-0.271,0-0.492,0.22-0.492,0.491c0,0.271,0.22,0.49,0.492,0.49h1.979c0.271,0,0.491-0.22,0.491-0.49   C52.466,59.069,52.245,58.85,51.975,58.85z"/><path d="M40.103,58.85h-1.979c-0.271,0-0.491,0.22-0.491,0.491c0,0.271,0.22,0.49,0.491,0.49h1.979c0.271,0,0.491-0.22,0.491-0.49   C40.593,59.069,40.374,58.85,40.103,58.85z"/><path d="M44.061,58.85h-1.98c-0.271,0-0.49,0.22-0.49,0.491c0,0.271,0.22,0.49,0.49,0.49h1.98c0.271,0,0.49-0.22,0.49-0.49   C44.55,59.069,44.331,58.85,44.061,58.85z"/><path d="M81.654,58.85c-0.272,0-0.491,0.22-0.491,0.491c0,0.271,0.219,0.49,0.491,0.49h1.979c0.27,0,0.49-0.22,0.49-0.49   c0-0.271-0.221-0.491-0.49-0.491H81.654z"/><path d="M69.783,58.85c-0.272,0-0.492,0.22-0.492,0.491c0,0.271,0.22,0.49,0.492,0.49h1.978c0.272,0,0.491-0.22,0.491-0.49   c0-0.271-0.219-0.491-0.491-0.491H69.783z"/><path d="M65.826,58.85c-0.272,0-0.491,0.22-0.491,0.491c0,0.271,0.219,0.49,0.491,0.49h1.977c0.272,0,0.492-0.22,0.492-0.49   c0-0.271-0.22-0.491-0.492-0.491H65.826z"/><path d="M73.739,58.85c-0.271,0-0.491,0.22-0.491,0.491c0,0.271,0.22,0.49,0.491,0.49h1.979c0.272,0,0.492-0.22,0.492-0.49   c0-0.271-0.22-0.491-0.492-0.491H73.739z"/><path d="M77.697,58.85c-0.271,0-0.492,0.22-0.492,0.491c0,0.271,0.221,0.49,0.492,0.49h1.978c0.272,0,0.492-0.22,0.492-0.49   c0-0.271-0.22-0.491-0.492-0.491H77.697z"/><path d="M85.61,58.85c-0.271,0-0.491,0.22-0.491,0.491c0,0.271,0.221,0.49,0.491,0.49h1.98c0.271,0,0.491-0.22,0.491-0.49   c0-0.271-0.221-0.491-0.491-0.491H85.61z"/><path d="M89.568,58.85c-0.271,0-0.491,0.22-0.491,0.491c0,0.271,0.22,0.49,0.491,0.49h1.979c0.271,0,0.49-0.22,0.49-0.49   c0-0.271-0.22-0.491-0.49-0.491H89.568z"/><path d="M94.509,28.057c-0.271,0-0.493,0.22-0.493,0.49v1.864c0,0.271,0.222,0.491,0.493,0.491S95,30.682,95,30.411v-1.864   C95,28.276,94.78,28.057,94.509,28.057z"/><path d="M94.509,39.235c-0.271,0-0.493,0.22-0.493,0.491v1.862c0,0.271,0.222,0.492,0.493,0.492S95,41.86,95,41.589v-1.862   C95,39.455,94.78,39.235,94.509,39.235z"/><path d="M94.509,31.783c-0.271,0-0.493,0.22-0.493,0.49v1.863c0,0.271,0.222,0.492,0.493,0.492S95,34.408,95,34.137v-1.863   C95,32.003,94.78,31.783,94.509,31.783z"/><path d="M94.509,35.509c-0.271,0-0.493,0.221-0.493,0.492v1.862c0,0.271,0.222,0.491,0.493,0.491S95,38.134,95,37.863v-1.862   C95,35.729,94.78,35.509,94.509,35.509z"/><path d="M94.509,42.962c-0.271,0-0.493,0.22-0.493,0.491v1.863c0,0.271,0.222,0.49,0.493,0.49S95,45.587,95,45.316v-1.863   C95,43.182,94.78,42.962,94.509,42.962z"/><path d="M94.509,54.141c-0.271,0-0.493,0.22-0.493,0.491v1.863c0,0.271,0.222,0.492,0.493,0.492S95,56.766,95,56.495v-1.863   C95,54.36,94.78,54.141,94.509,54.141z"/><path d="M94.509,46.688c-0.271,0-0.493,0.22-0.493,0.491v1.863c0,0.271,0.222,0.492,0.493,0.492S95,49.313,95,49.042v-1.863   C95,46.907,94.78,46.688,94.509,46.688z"/><path d="M94.509,50.414c-0.271,0-0.493,0.221-0.493,0.492v1.862c0,0.271,0.222,0.492,0.493,0.492S95,53.039,95,52.769v-1.862   C95,50.635,94.78,50.414,94.509,50.414z"/><path d="M94.509,24.33c-0.271,0-0.493,0.22-0.493,0.491v1.719h-0.491c-0.271,0-0.49,0.22-0.49,0.491   c0,0.107,0.041,0.203,0.101,0.283l-27.808,17.51V40.93l0.602-0.379c0.229-0.146,0.298-0.448,0.154-0.678   c-0.146-0.229-0.447-0.298-0.678-0.154l-0.711,0.448H35.654v-0.44c0-0.271-0.219-0.491-0.491-0.491s-0.491,0.22-0.491,0.491v0.44   h-19.45l1.248-0.785c0.229-0.145,0.297-0.449,0.153-0.679c-0.145-0.229-0.447-0.298-0.677-0.153l-1.648,1.037   c-0.199,0.126-0.268,0.367-0.191,0.58H7.193l27.479-17.303v0.094c0,0.271,0.219,0.49,0.491,0.49s0.491-0.22,0.491-0.49v-0.491   h0.491c0.272,0,0.493-0.22,0.493-0.491s-0.22-0.491-0.493-0.491h-1.472l-0.349,0.22L5,40.167l0,0v38.349h60.327l0,0L94.65,60.052   L95,59.831v-1.473c0-0.271-0.22-0.491-0.491-0.491s-0.493,0.22-0.493,0.491v0.491h-0.49c-0.271,0-0.491,0.22-0.491,0.491   c0,0.107,0.042,0.202,0.101,0.283l-27.808,17.51V45.984L94.77,27.446c0.017-0.011,0.026-0.026,0.041-0.038   c0.025-0.02,0.048-0.041,0.067-0.065c0.021-0.025,0.041-0.052,0.056-0.082c0.014-0.024,0.024-0.049,0.033-0.077   c0.011-0.035,0.019-0.07,0.022-0.107c0.001-0.016,0.009-0.029,0.009-0.045c0-0.013-0.007-0.022-0.007-0.034   c-0.002-0.036-0.012-0.07-0.021-0.105c-0.004-0.011-0.004-0.022-0.007-0.031C94.985,26.805,95,26.746,95,26.684v-1.862   C95,24.55,94.78,24.33,94.509,24.33z M35.163,42.081c0.271,0,0.491-0.221,0.491-0.492v-0.439h28.691v4.072H35.654v-1.77   c0-0.271-0.219-0.49-0.491-0.49s-0.491,0.22-0.491,0.49v1.77H6.803c0.008-0.1-0.007-0.202-0.065-0.294   c-0.144-0.229-0.447-0.297-0.676-0.153l-0.079,0.05v-3.675h5.836l-0.815,0.513c-0.229,0.145-0.298,0.448-0.153,0.678   c0.093,0.147,0.252,0.229,0.415,0.229c0.09,0,0.18-0.024,0.261-0.075l1.648-1.037c0.115-0.072,0.188-0.184,0.217-0.307h21.281   v0.439C34.672,41.86,34.892,42.081,35.163,42.081z M7.193,77.532l1.633-1.028c0.23-0.144,0.299-0.447,0.154-0.678   c-0.145-0.229-0.448-0.297-0.678-0.153l-1.661,1.046c-0.231,0.146-0.299,0.448-0.155,0.679c0.035,0.056,0.082,0.099,0.132,0.135   H5.982V46.204h58.362v31.328H7.193z"/><path d="M93.525,21.484c-0.271,0-0.491,0.22-0.491,0.491c0,0.151,0.074,0.282,0.182,0.373c-0.044,0.134-0.036,0.283,0.046,0.411   c0.094,0.148,0.252,0.23,0.415,0.23c0.09,0,0.181-0.025,0.262-0.076l0.077-0.05v0.094c0,0.271,0.222,0.49,0.493,0.49   S95,23.229,95,22.958v-1.474H93.525z"/><path d="M73.741,22.467h1.977c0.272,0,0.492-0.22,0.492-0.491s-0.22-0.491-0.492-0.491h-1.977c-0.273,0-0.492,0.22-0.492,0.491   S73.468,22.467,73.741,22.467z"/><path d="M69.784,22.467h1.977c0.272,0,0.491-0.22,0.491-0.491s-0.219-0.491-0.491-0.491h-1.977c-0.272,0-0.492,0.22-0.492,0.491   S69.512,22.467,69.784,22.467z"/><path d="M65.826,22.467h1.977c0.272,0,0.492-0.22,0.492-0.491s-0.22-0.491-0.492-0.491h-1.977c-0.272,0-0.491,0.22-0.491,0.491   S65.554,22.467,65.826,22.467z"/><path d="M89.569,22.467h1.979c0.271,0,0.49-0.22,0.49-0.491s-0.22-0.491-0.49-0.491h-1.979c-0.271,0-0.492,0.22-0.492,0.491   S89.298,22.467,89.569,22.467z"/><path d="M85.612,22.467h1.979c0.271,0,0.491-0.22,0.491-0.491s-0.221-0.491-0.491-0.491h-1.979c-0.271,0-0.492,0.22-0.492,0.491   S85.341,22.467,85.612,22.467z"/><path d="M81.655,22.467h1.979c0.27,0,0.49-0.22,0.49-0.491s-0.221-0.491-0.49-0.491h-1.979c-0.271,0-0.492,0.22-0.492,0.491   S81.384,22.467,81.655,22.467z"/><path d="M38.124,22.467h1.979c0.272,0,0.491-0.22,0.491-0.491s-0.219-0.491-0.491-0.491h-1.979c-0.271,0-0.491,0.22-0.491,0.491   S37.853,22.467,38.124,22.467z"/><path d="M49.996,22.467h1.979c0.271,0,0.49-0.22,0.49-0.491s-0.22-0.491-0.49-0.491h-1.979c-0.271,0-0.492,0.22-0.492,0.491   S49.725,22.467,49.996,22.467z"/><path d="M53.953,22.467h1.979c0.27,0,0.49-0.22,0.49-0.491s-0.221-0.491-0.49-0.491h-1.979c-0.271,0-0.49,0.22-0.49,0.491   S53.682,22.467,53.953,22.467z"/><path d="M57.912,22.467h1.977c0.271,0,0.492-0.22,0.492-0.491s-0.221-0.491-0.492-0.491h-1.977c-0.271,0-0.492,0.22-0.492,0.491   S57.641,22.467,57.912,22.467z"/><path d="M42.081,22.467h1.98c0.271,0,0.491-0.22,0.491-0.491s-0.22-0.491-0.491-0.491h-1.98c-0.271,0-0.49,0.22-0.49,0.491   S41.81,22.467,42.081,22.467z"/><path d="M46.039,22.467h1.979c0.271,0,0.491-0.22,0.491-0.491s-0.22-0.491-0.491-0.491h-1.979c-0.27,0-0.491,0.22-0.491,0.491   S45.769,22.467,46.039,22.467z"/><path d="M61.868,22.467h1.978c0.272,0,0.491-0.22,0.491-0.491s-0.219-0.491-0.491-0.491h-1.978c-0.271,0-0.49,0.22-0.49,0.491   S61.598,22.467,61.868,22.467z"/><path d="M77.697,22.467h1.978c0.272,0,0.492-0.22,0.492-0.491s-0.22-0.491-0.492-0.491h-1.978c-0.271,0-0.492,0.22-0.492,0.491   S77.426,22.467,77.697,22.467z"/><path d="M25.832,32.325l-1.648,1.038c-0.229,0.144-0.298,0.446-0.154,0.677c0.094,0.147,0.253,0.229,0.416,0.229   c0.09,0,0.18-0.024,0.262-0.075l1.647-1.038c0.229-0.145,0.298-0.448,0.154-0.677C26.365,32.25,26.062,32.182,25.832,32.325z"/><path d="M29.127,30.251l-1.648,1.037c-0.229,0.145-0.298,0.447-0.153,0.678c0.093,0.147,0.252,0.229,0.417,0.229   c0.089,0,0.179-0.023,0.261-0.075l1.646-1.037c0.23-0.145,0.299-0.448,0.154-0.678C29.66,30.176,29.358,30.106,29.127,30.251z"/><path d="M22.538,34.4l-1.648,1.037c-0.229,0.146-0.298,0.448-0.153,0.678c0.093,0.148,0.252,0.229,0.416,0.229   c0.089,0,0.18-0.025,0.261-0.076l1.647-1.036c0.23-0.146,0.298-0.448,0.154-0.679C23.07,34.325,22.768,34.256,22.538,34.4z"/><path d="M32.422,28.176l-1.648,1.038c-0.229,0.144-0.299,0.447-0.153,0.677c0.093,0.147,0.253,0.229,0.416,0.229   c0.089,0,0.18-0.024,0.262-0.075l1.647-1.038c0.229-0.145,0.298-0.447,0.154-0.677C32.956,28.1,32.653,28.031,32.422,28.176z"/><path d="M9.356,42.699l-1.648,1.038c-0.229,0.145-0.298,0.447-0.154,0.678c0.093,0.147,0.253,0.229,0.416,0.229   c0.089,0,0.18-0.025,0.261-0.075l1.648-1.038c0.229-0.146,0.298-0.448,0.154-0.678C9.889,42.624,9.586,42.556,9.356,42.699z"/><path d="M19.242,36.475l-1.648,1.038c-0.229,0.145-0.298,0.447-0.154,0.677c0.094,0.148,0.253,0.229,0.416,0.229   c0.089,0,0.181-0.024,0.262-0.075l1.648-1.037c0.229-0.146,0.298-0.448,0.154-0.678C19.774,36.399,19.472,36.331,19.242,36.475z"/><path d="M66.898,39.358c0.094,0.148,0.255,0.229,0.417,0.229c0.09,0,0.18-0.024,0.262-0.075l1.647-1.038   c0.229-0.145,0.298-0.447,0.152-0.677c-0.143-0.229-0.445-0.298-0.677-0.153l-1.647,1.037   C66.824,38.826,66.754,39.129,66.898,39.358z"/><path d="M71.996,35.569l-1.649,1.037c-0.229,0.145-0.297,0.448-0.153,0.677c0.095,0.149,0.253,0.23,0.417,0.23   c0.088,0,0.18-0.024,0.262-0.075L72.52,36.4c0.229-0.145,0.297-0.447,0.154-0.677C72.529,35.493,72.227,35.426,71.996,35.569z"/><path d="M80.079,31.06c0.096,0.148,0.254,0.229,0.418,0.229c0.088,0,0.18-0.024,0.262-0.076l1.646-1.037   c0.229-0.144,0.298-0.448,0.155-0.677c-0.146-0.229-0.446-0.298-0.68-0.154l-1.646,1.038C80.005,30.526,79.936,30.829,80.079,31.06   z"/><path d="M77.201,33.364c0.089,0,0.18-0.025,0.262-0.076l1.647-1.037c0.229-0.145,0.299-0.448,0.154-0.677   c-0.144-0.229-0.447-0.299-0.678-0.154l-1.648,1.037c-0.229,0.145-0.298,0.448-0.154,0.677   C76.878,33.282,77.037,33.364,77.201,33.364z"/><path d="M91.767,23.121l-1.646,1.037c-0.229,0.144-0.299,0.447-0.154,0.677c0.093,0.147,0.253,0.229,0.418,0.229   c0.087,0,0.178-0.023,0.26-0.075l1.648-1.037c0.229-0.145,0.296-0.447,0.154-0.678C92.301,23.045,92,22.976,91.767,23.121z"/><path d="M85.178,27.27l-1.647,1.038c-0.231,0.145-0.299,0.447-0.155,0.677c0.094,0.148,0.253,0.229,0.417,0.229   c0.09,0,0.181-0.023,0.262-0.075l1.647-1.037c0.199-0.125,0.266-0.367,0.19-0.58h1.698c0.271,0,0.492-0.22,0.492-0.49   c0-0.134-0.056-0.252-0.142-0.342l1.055-0.662c0.23-0.146,0.3-0.448,0.155-0.679c-0.146-0.229-0.446-0.297-0.679-0.153   l-1.647,1.038c-0.114,0.071-0.189,0.184-0.218,0.307H85.61c-0.271,0-0.491,0.22-0.491,0.491c0,0.086,0.029,0.164,0.07,0.234   C85.187,27.268,85.181,27.268,85.178,27.27z"/><path d="M75.291,33.495l-1.647,1.037c-0.229,0.145-0.298,0.448-0.153,0.678c0.093,0.147,0.253,0.229,0.415,0.229   c0.09,0,0.181-0.024,0.263-0.075l1.646-1.037c0.229-0.146,0.299-0.448,0.154-0.678C75.823,33.419,75.523,33.352,75.291,33.495z"/><path d="M14.952,71.486l-1.662,1.047c-0.229,0.144-0.3,0.447-0.154,0.676c0.093,0.148,0.253,0.23,0.416,0.23   c0.09,0,0.18-0.024,0.261-0.076l1.662-1.046c0.23-0.145,0.299-0.448,0.154-0.677C15.485,71.41,15.182,71.343,14.952,71.486z"/><path d="M18.277,69.392l-1.662,1.048c-0.23,0.145-0.299,0.447-0.155,0.678c0.093,0.147,0.253,0.229,0.417,0.229   c0.089,0,0.18-0.025,0.261-0.075l1.662-1.047c0.23-0.144,0.299-0.448,0.154-0.677C18.81,69.317,18.507,69.249,18.277,69.392z"/><path d="M24.928,65.206l-1.664,1.046c-0.229,0.145-0.299,0.448-0.154,0.678c0.093,0.149,0.253,0.229,0.416,0.229   c0.09,0,0.18-0.025,0.261-0.076l1.664-1.047c0.229-0.145,0.298-0.447,0.153-0.677C25.459,65.129,25.156,65.062,24.928,65.206z"/><path d="M31.576,61.019l-1.661,1.047c-0.23,0.145-0.299,0.448-0.154,0.677c0.092,0.148,0.253,0.229,0.416,0.229   c0.09,0,0.181-0.022,0.261-0.074l1.662-1.046c0.229-0.146,0.299-0.448,0.154-0.678C32.109,60.942,31.806,60.875,31.576,61.019z"/><path d="M11.627,73.579l-1.662,1.047c-0.23,0.145-0.298,0.447-0.154,0.678c0.093,0.148,0.253,0.229,0.417,0.229   c0.088,0,0.179-0.023,0.261-0.075l1.662-1.047c0.23-0.144,0.298-0.448,0.155-0.678C12.161,73.504,11.857,73.436,11.627,73.579z"/><path d="M28.251,63.112l-1.662,1.047c-0.23,0.144-0.298,0.447-0.154,0.677c0.093,0.148,0.253,0.229,0.417,0.229   c0.089,0,0.18-0.025,0.261-0.076l1.663-1.047c0.229-0.144,0.298-0.447,0.153-0.676C28.786,63.036,28.481,62.968,28.251,63.112z"/><path d="M21.602,67.298l-1.663,1.048c-0.229,0.145-0.298,0.447-0.153,0.678c0.093,0.148,0.253,0.229,0.417,0.229   c0.088,0,0.179-0.023,0.26-0.074l1.663-1.047c0.229-0.146,0.299-0.448,0.154-0.678C22.135,67.225,21.832,67.155,21.602,67.298z"/><path d="M36.637,27.031c0-0.271-0.22-0.491-0.493-0.491h-0.491v-1.72c0-0.271-0.219-0.49-0.491-0.49s-0.491,0.219-0.491,0.49v1.863   c0,0.024,0.01,0.045,0.013,0.067l-0.615,0.388c-0.229,0.145-0.299,0.448-0.154,0.677c0.094,0.148,0.253,0.229,0.417,0.229   c0.09,0,0.18-0.024,0.261-0.075l0.711-0.448h0.84C36.417,27.521,36.637,27.302,36.637,27.031z"/><path d="M69.781,27.521h1.979c0.272,0,0.491-0.22,0.491-0.49c0-0.271-0.219-0.491-0.491-0.491h-1.979   c-0.271,0-0.491,0.22-0.491,0.491C69.29,27.302,69.511,27.521,69.781,27.521z"/><path d="M49.996,27.521h1.979c0.271,0,0.491-0.22,0.491-0.49c0-0.271-0.221-0.491-0.491-0.491h-1.979   c-0.272,0-0.492,0.22-0.492,0.491C49.504,27.302,49.724,27.521,49.996,27.521z"/><path d="M53.953,27.521h1.979c0.27,0,0.489-0.22,0.489-0.49c0-0.271-0.22-0.491-0.489-0.491h-1.979c-0.271,0-0.49,0.22-0.49,0.491   C53.463,27.302,53.682,27.521,53.953,27.521z"/><path d="M89.567,26.54c-0.271,0-0.491,0.22-0.491,0.491c0,0.271,0.221,0.49,0.491,0.49h1.979c0.271,0,0.492-0.22,0.492-0.49   c0-0.271-0.221-0.491-0.492-0.491H89.567z"/><path d="M46.039,27.521h1.979c0.271,0,0.491-0.22,0.491-0.49c0-0.271-0.22-0.491-0.491-0.491h-1.979   c-0.272,0-0.491,0.22-0.491,0.491C45.547,27.302,45.767,27.521,46.039,27.521z"/><path d="M42.081,27.521h1.979c0.271,0,0.491-0.22,0.491-0.49c0-0.271-0.219-0.491-0.491-0.491h-1.979   c-0.271,0-0.49,0.22-0.49,0.491C41.59,27.302,41.81,27.521,42.081,27.521z"/><path d="M81.653,27.521h1.979c0.271,0,0.492-0.22,0.492-0.49c0-0.271-0.221-0.491-0.492-0.491h-1.979   c-0.271,0-0.491,0.22-0.491,0.491C81.162,27.302,81.382,27.521,81.653,27.521z"/><path d="M65.826,27.521h1.977c0.272,0,0.491-0.22,0.491-0.49c0-0.271-0.219-0.491-0.491-0.491h-1.977   c-0.273,0-0.491,0.22-0.491,0.491C65.335,27.302,65.553,27.521,65.826,27.521z"/><path d="M61.867,27.521h1.979c0.272,0,0.491-0.22,0.491-0.49c0-0.271-0.219-0.491-0.491-0.491h-1.979c-0.27,0-0.49,0.22-0.49,0.491   C61.377,27.302,61.598,27.521,61.867,27.521z"/><path d="M38.124,27.521h1.979c0.271,0,0.491-0.22,0.491-0.49c0-0.271-0.219-0.491-0.491-0.491h-1.979   c-0.271,0-0.491,0.22-0.491,0.491C37.633,27.302,37.853,27.521,38.124,27.521z"/><path d="M73.739,27.521h1.979c0.271,0,0.492-0.22,0.492-0.49c0-0.271-0.222-0.491-0.492-0.491h-1.979   c-0.271,0-0.491,0.22-0.491,0.491C73.248,27.302,73.468,27.521,73.739,27.521z"/><path d="M57.91,27.521h1.978c0.271,0,0.492-0.22,0.492-0.49c0-0.271-0.221-0.491-0.492-0.491H57.91   c-0.271,0-0.491,0.22-0.491,0.491C57.419,27.302,57.639,27.521,57.91,27.521z"/><path d="M77.696,27.521h1.979c0.271,0,0.491-0.22,0.491-0.49c0-0.271-0.22-0.491-0.491-0.491h-1.979   c-0.272,0-0.491,0.22-0.491,0.491C77.205,27.302,77.424,27.521,77.696,27.521z"/></g></svg>